<?xml version="1.0" encoding="UTF-8" standalone="no"?>
<svg
   xmlns:dc="http://purl.org/dc/elements/1.1/"
   xmlns:cc="http://creativecommons.org/ns#"
   xmlns:rdf="http://www.w3.org/1999/02/22-rdf-syntax-ns#"
   xmlns:svg="http://www.w3.org/2000/svg"
   xmlns="http://www.w3.org/2000/svg"
   xmlns:sodipodi="http://sodipodi.sourceforge.net/DTD/sodipodi-0.dtd"
   xmlns:inkscape="http://www.inkscape.org/namespaces/inkscape"
   version="1.1"
   id="crowdin-icon"
   width="24"
   height="24"
   x="0px"
   y="0px"
   viewBox="0 0 24 24"
   fill="black"
   style="enable-background:new 0 0 24 24;"
   xml:space="preserve"
   sodipodi:docname="crowdin-icon.svg"
   inkscape:version="0.92.5 (2060ec1f9f, 2020-04-08)"><metadata
   id="metadata9"><rdf:RDF><cc:Work
       rdf:about=""><dc:format>image/svg+xml</dc:format><dc:type
         rdf:resource="http://purl.org/dc/dcmitype/StillImage" /></cc:Work></rdf:RDF></metadata><defs
   id="defs7" /><sodipodi:namedview
   pagecolor="#ffffff"
   bordercolor="#666666"
   borderopacity="1"
   objecttolerance="10"
   gridtolerance="10"
   guidetolerance="10"
   inkscape:pageopacity="0"
   inkscape:pageshadow="2"
   inkscape:window-width="1920"
   inkscape:window-height="1017"
   id="namedview5"
   showgrid="false"
   inkscape:zoom="9.8333333"
   inkscape:cx="11.186441"
   inkscape:cy="12"
   inkscape:window-x="-8"
   inkscape:window-y="-8"
   inkscape:window-maximized="1"
   inkscape:current-layer="crowdin-icon" /> <path
   d="m 15.043512,16.321201 c -0.479815,0 -0.879661,-0.159939 -1.199538,-0.399847 -0.399847,-0.319877 -0.719723,-0.799692 -0.719723,-1.359477 0,-0.319877 0.319876,-0.319877 0.319876,-0.319877 h 0.719724 c 0.239907,0 0.319877,0.319877 0.319877,0.399847 0.07997,0.799692 0.559784,1.119569 0.879661,1.279507 0.159939,0.07997 0.07997,0.399847 -0.319877,0.399847 z m -4.1584,-3.918493 -1.4394466,-0.159939 C 8.8059115,12.002862 8.8059115,11.443077 8.8858807,11.283138 8.96585,10.723354 9.2057577,10.163569 9.4456654,9.6837535 9.8455116,9.1239688 10.405296,8.5641841 11.125019,8.1643379 c 1.359478,-0.7996924 3.278739,-1.2795078 5.35794,-1.2795078 1.519415,0 3.1188,0.2399077 3.1188,0.2399077 0.159939,0 0.239908,0.1599385 0.239908,0.319877 0,0.1599384 -0.07997,0.3198769 -0.239908,0.3198769 h -0.639754 c -2.159169,0 -3.678585,0.319877 -4.798154,0.9596309 -1.11957,0.639754 -1.919262,1.5993844 -2.399078,2.9588624 -0.07997,0.07997 -0.239907,0.799692 -0.879661,0.719723 z m 1.839292,5.837754 c -1.0396,0 -2.0792,-0.479815 -2.7989231,-1.279507 -0.639754,-0.719724 -1.0396002,-1.439447 -1.1195694,-2.319108 -0.079969,-0.639754 0.2399077,-0.799693 0.5597847,-0.799693 l 1.4394468,0.159939 c 0.319876,0.07997 0.559784,0.239907 0.639753,0.639754 0.319877,1.999231 1.519416,2.798923 2.319108,3.038831 0.159939,0 0.239908,0.07997 0.239908,0.239907 0,0.159939 -0.07997,0.239908 -0.239908,0.319877 -0.399846,0 -0.719723,0 -1.0396,0 z m -3.0388309,1.759324 c -0.5597847,0 -1.1195694,-0.07997 -1.679354,-0.159939 C 7.1265574,19.679909 6.4068342,19.440001 5.7670803,18.960186 4.2476647,18.000555 3.368003,16.241231 3.2080645,14.242 c 0,-0.479815 -0.079969,-1.439446 1.0396002,-1.359477 0.4798154,0 1.1995386,0.239908 1.7593233,0.399846 0.6397539,0.159939 0.9596309,0.719724 0.9596309,1.199539 0,2.878893 2.5590157,4.798155 3.6785851,4.798155 0.479815,0 0.319877,0.559784 0.07997,0.559784 -0.319877,0.159939 -0.7996921,0.159939 -1.0396009,0.159939 z M 5.7670803,11.603015 C 5.2872648,11.523046 4.8874186,11.363108 4.4875724,11.203169 3.2080645,10.883292 3.4479723,9.523815 3.5279415,9.2039381 4.7274801,5.6852914 8.4860345,4.4857528 11.524866,4.1658758 c 2.878892,-0.3198769 5.837754,-0.079969 8.636678,0.7197232 0.239908,0.079969 0.959631,0.2399077 0.559784,0.639754 -0.239907,0.2399077 -1.279507,0 -1.519415,0 -1.599385,-0.1599385 -3.278739,-0.1599385 -4.878124,0.079969 -1.759323,0.2399077 -3.518646,0.7996924 -4.8781236,1.999231 -0.7996924,0.5597847 -1.999231,2.559016 -1.999231,2.798924 -0.079969,0.239907 -0.3998462,1.359477 -1.6793541,1.199538 z m 7.2772007,0.639754 c 0.239908,-1.119569 1.359477,-2.8788924 4.718186,-2.718954 0.799692,0 0.399846,0.559785 0,0.559785 -1.919262,-0.07997 -2.798924,1.199538 -3.278739,2.399077 -0.159939,0.399846 -0.479816,0.479815 -0.959631,0.399846 -0.239908,-0.07997 -0.559785,-0.07997 -0.479816,-0.639754 z"
   id="path2"
   style="fill:#808080;fill-opacity:1;stroke-width:0.79969239"
   inkscape:connector-curvature="0" /> </svg>